<?xml version="1.0" encoding="UTF-8" standalone="no"?>
<svg
   width="315.01904"
   height="67.211212"
   viewBox="0 0 315.01904 67.211212"
   fill="none"
   version="1.1"
   id="svg8"
   sodipodi:docname="logo_white_text.svg"
   inkscape:version="1.1.2 (0a00cf5339, 2022-02-04)"
   xmlns:inkscape="http://www.inkscape.org/namespaces/inkscape"
   xmlns:sodipodi="http://sodipodi.sourceforge.net/DTD/sodipodi-0.dtd"
   xmlns="http://www.w3.org/2000/svg"
   xmlns:svg="http://www.w3.org/2000/svg">
  <defs
     id="defs12" />
  <sodipodi:namedview
     id="namedview10"
     pagecolor="#ffffff"
     bordercolor="#666666"
     borderopacity="1.0"
     inkscape:pageshadow="2"
     inkscape:pageopacity="0.0"
     inkscape:pagecheckerboard="0"
     showgrid="false"
     inkscape:zoom="5.153125"
     inkscape:cx="159.3208"
     inkscape:cy="32.213463"
     inkscape:window-width="3840"
     inkscape:window-height="2059"
     inkscape:window-x="0"
     inkscape:window-y="0"
     inkscape:window-maximized="1"
     inkscape:current-layer="svg8" />
  <path
     d="m 12.162057,45.64181 h 7.5106 v 17.8141 c 0,2.074 -1.6813,3.7553 -3.7553,3.7553 v 0 c -2.074,0 -3.7553,-1.6813 -3.7553,-3.7553 z"
     fill="#ffffff"
     id="path2" />
  <path
     fill-rule="evenodd"
     clip-rule="evenodd"
     d="m 19.672657,0.88398 c 0,4.11843 -3.3386,7.45703 -7.4571,7.45703 -0.8153,0 -1.6,-0.1308 -2.3344,-0.3726 0.0023,0.0758 0.0035,0.152 0.0035,0.2284 0,4.1185 -3.33867,7.4571 -7.45709,7.4571 -0.84927,0 -1.66538,-0.142 -2.425885,-0.4035 C 5.62e-4,15.32821 0,15.40621 0,15.48421 v 29.5948 c 0,2.954 2.394707,5.3488 5.348737,5.3488 h 21.13722 c 2.954,0 5.3487,-2.3948 5.3487,-5.3488 v -29.5948 c 0,-7.5158 -5.209,-13.81501 -12.2138,-15.48421 0.0342,0.2899 0.0518,0.58488 0.0518,0.88398 z m -9.904,19.83543 c -1.79786,0 -3.296,1.9776 -3.296,4.4945 0,2.5169 1.49814,4.4945 3.296,4.4945 1.7978,0 3.296,-1.9776 3.296,-4.4945 0,-2.5169 -1.4982,-4.4945 -3.296,-4.4945 z m 12.2973,-10e-5 c -1.7978,0 -3.2959,2.0375 -3.2959,4.4945 0,2.457 1.4981,4.4945 3.2959,4.4945 1.7979,0 3.296,-2.0375 3.296,-4.4945 0,-2.5169 -1.4981,-4.4945 -3.296,-4.4945 z"
     fill="#ffffff"
     id="path4" />
  <path
     d="m 69.442757,46.17151 -11.3779,-13.9312 v 13.9312 h -6.2713 v -31.2668 h 6.2713 v 14.0208 l 11.3779,-14.0208 h 7.5703 l -12.9009,15.499 13.2592,15.7678 z m 23.5211,0.4032 c -2.3891,0 -4.5392,-0.5227 -6.4505,-1.5679 -1.9112,-1.075 -3.4193,-2.5831 -4.5242,-4.5242 -1.0751,-1.9411 -1.6127,-4.1809 -1.6127,-6.7193 0,-2.5383 0.5525,-4.7781 1.6574,-6.7192 1.1348,-1.9411 2.6728,-3.4342 4.6139,-4.4795 1.9411,-1.075 4.1062,-1.6126 6.4953,-1.6126 2.389,0 4.5541,0.5376 6.495,1.6126 1.941003,1.0453 3.464003,2.5384 4.569003,4.4795 1.135,1.9411 1.702,4.1809 1.702,6.7192 0,2.5384 -0.582,4.7782 -1.747,6.7193 -1.134,1.9411 -2.687,3.4492 -4.658003,4.5242 -1.9413,1.0452 -4.1213,1.5679 -6.5402,1.5679 z m 0,-5.465 c 1.1348,0 2.1949,-0.2688 3.1804,-0.8063 1.0154,-0.5674 1.8217,-1.4036 2.4189,-2.5085 0.5973,-1.105 0.8959,-2.4488 0.8959,-4.0316 0,-2.3591 -0.6271,-4.1659 -1.8814,-5.4201 -1.2244,-1.2841 -2.7324,-1.9262 -4.5242,-1.9262 -1.7918,0 -3.2999,0.6421 -4.5243,1.9262 -1.1945,1.2542 -1.7918,3.061 -1.7918,5.4201 0,2.3592 0.5823,4.1809 1.747,5.465 1.1945,1.2543 2.6877,1.8814 4.4795,1.8814 z m 48.812203,-20.1129 c 3.046,0 5.495,0.9407 7.347,2.8221 1.881,1.8515 2.822,4.4496 2.822,7.7943 v 14.5583 h -6.271 v -13.7072 c 0,-1.9411 -0.493,-3.4193 -1.479,-4.4347 -0.985,-1.0452 -2.329,-1.5678 -4.031,-1.5678 -1.702,0 -3.061,0.5226 -4.076,1.5678 -0.986,1.0154 -1.479,2.4936 -1.479,4.4347 v 13.7072 h -6.271 v -13.7072 c 0,-1.9411 -0.493,-3.4193 -1.478,-4.4347 -0.986,-1.0452 -2.33,-1.5678 -4.032,-1.5678 -1.732,0 -3.106,0.5226 -4.121,1.5678 -0.985,1.0154 -1.478,2.4936 -1.478,4.4347 v 13.7072 h -6.271 v -24.8163 h 6.271 v 3.0012 c 0.806,-1.0452 1.836,-1.8664 3.091,-2.4637 1.284,-0.5972 2.687,-0.8959 4.21,-0.8959 1.942,0 3.674,0.4181 5.197,1.2543 1.523,0.8063 2.702,1.971 3.538,3.494 0.807,-1.4335 1.971,-2.5832 3.494,-3.4492 1.553,-0.8661 3.226,-1.2991 5.017,-1.2991 z m 27.587,25.5779 c -2.389,0 -4.539,-0.5227 -6.45,-1.5679 -1.911,-1.075 -3.419,-2.5831 -4.524,-4.5242 -1.075,-1.9411 -1.613,-4.1809 -1.613,-6.7193 0,-2.5383 0.553,-4.7781 1.657,-6.7192 1.135,-1.9411 2.673,-3.4342 4.614,-4.4795 1.941,-1.075 4.107,-1.6126 6.496,-1.6126 2.389,0 4.554,0.5376 6.495,1.6126 1.941,1.0453 3.464,2.5384 4.569,4.4795 1.135,1.9411 1.702,4.1809 1.702,6.7192 0,2.5384 -0.582,4.7782 -1.747,6.7193 -1.135,1.9411 -2.688,3.4492 -4.659,4.5242 -1.941,1.0452 -4.121,1.5679 -6.54,1.5679 z m 0,-5.465 c 1.135,0 2.195,-0.2688 3.181,-0.8063 1.015,-0.5674 1.821,-1.4036 2.419,-2.5085 0.597,-1.105 0.896,-2.4488 0.896,-4.0316 0,-2.3591 -0.627,-4.1659 -1.882,-5.4201 -1.224,-1.2841 -2.732,-1.9262 -4.524,-1.9262 -1.792,0 -3.3,0.6421 -4.524,1.9262 -1.195,1.2542 -1.792,3.061 -1.792,5.4201 0,2.3592 0.582,4.1809 1.747,5.465 1.194,1.2543 2.688,1.8814 4.479,1.8814 z m 24.266,-16.1709 c 0.806,-1.1348 1.911,-2.0755 3.314,-2.8221 1.434,-0.7764 3.061,-1.1647 4.883,-1.1647 2.12,0 4.031,0.5226 5.734,1.5679 1.732,1.0452 3.091,2.5383 4.076,4.4794 1.015,1.9113 1.523,4.1361 1.523,6.6745 0,2.5383 -0.508,4.793 -1.523,6.764 -0.985,1.9411 -2.344,3.4492 -4.076,4.5242 -1.703,1.0751 -3.614,1.6127 -5.734,1.6127 -1.822,0 -3.434,-0.3733 -4.838,-1.1199 -1.374,-0.7466 -2.493,-1.6873 -3.359,-2.8221 v 15.3646 h -6.272 v -36.6421 h 6.272 z m 13.124,8.735 c 0,-1.4932 -0.313,-2.7773 -0.94,-3.8524 -0.598,-1.1049 -1.404,-1.9411 -2.419,-2.5085 -0.986,-0.5674 -2.061,-0.8511 -3.225,-0.8511 -1.135,0 -2.21,0.2986 -3.226,0.8959 -0.985,0.5674 -1.791,1.4036 -2.419,2.5085 -0.597,1.1049 -0.895,2.404 -0.895,3.8971 0,1.4932 0.298,2.7923 0.895,3.8972 0.628,1.1049 1.434,1.956 2.419,2.5533 1.016,0.5674 2.091,0.8511 3.226,0.8511 1.164,0 2.239,-0.2986 3.225,-0.8959 1.015,-0.5973 1.821,-1.4484 2.419,-2.5533 0.627,-1.1049 0.94,-2.4189 0.94,-3.9419 z m 17.682,-20.6504 v 33.1481 h -6.271 v -33.1481 z m 5.032,20.6504 c 0,-2.5086 0.493,-4.7334 1.478,-6.6745 1.015,-1.9411 2.374,-3.4342 4.076,-4.4794 1.732,-1.0453 3.659,-1.5679 5.779,-1.5679 1.851,0 3.464,0.3733 4.838,1.1199 1.403,0.7466 2.523,1.6873 3.359,2.8221 v -3.5388 h 6.316 v 24.8163 h -6.316 v -3.6284 c -0.806,1.1647 -1.926,2.1352 -3.359,2.9117 -1.404,0.7466 -3.031,1.1199 -4.883,1.1199 -2.09,0 -4.002,-0.5376 -5.734,-1.6127 -1.702,-1.075 -3.061,-2.5831 -4.076,-4.5242 -0.985,-1.971 -1.478,-4.2257 -1.478,-6.764 z m 19.53,0.0895 c 0,-1.523 -0.298,-2.822 -0.896,-3.8971 -0.597,-1.1049 -1.403,-1.9411 -2.418,-2.5085 -1.016,-0.5973 -2.106,-0.8959 -3.271,-0.8959 -1.164,0 -2.239,0.2837 -3.225,0.8511 -0.985,0.5674 -1.792,1.4036 -2.419,2.5085 -0.597,1.0751 -0.896,2.3592 -0.896,3.8524 0,1.4931 0.299,2.8071 0.896,3.9419 0.627,1.1049 1.434,1.956 2.419,2.5533 1.016,0.5973 2.091,0.8959 3.225,0.8959 1.165,0 2.255,-0.2837 3.271,-0.8511 1.015,-0.5973 1.821,-1.4334 2.418,-2.5085 0.598,-1.105 0.896,-2.4189 0.896,-3.942 z m 26.641,-12.7665 c 2.957,0 5.346,0.9407 7.168,2.8221 1.821,1.8515 2.732,4.4496 2.732,7.7943 v 14.5583 h -6.271 v -13.7072 c 0,-1.971 -0.493,-3.4791 -1.479,-4.5243 -0.985,-1.0751 -2.329,-1.6126 -4.031,-1.6126 -1.732,0 -3.106,0.5375 -4.121,1.6126 -0.986,1.0452 -1.478,2.5533 -1.478,4.5243 v 13.7072 h -6.272 v -24.8163 h 6.272 v 3.0908 c 0.836,-1.075 1.896,-1.9112 3.18,-2.5085 1.314,-0.6271 2.747,-0.9407 4.3,-0.9407 z m 39.381,12.229 c 0,0.8959 -0.06,1.7022 -0.179,2.4189 h -18.142 c 0.149,1.7918 0.776,3.1954 1.881,4.2107 1.105,1.0154 2.464,1.5231 4.077,1.5231 2.329,0 3.986,-1.0005 4.972,-3.0013 h 6.764 c -0.717,2.3891 -2.091,4.36 -4.121,5.9129 -2.031,1.523 -4.525,2.2846 -7.481,2.2846 -2.389,0 -4.539,-0.5227 -6.451,-1.5679 -1.881,-1.075 -3.359,-2.5831 -4.434,-4.5242 -1.045,-1.9411 -1.568,-4.1809 -1.568,-6.7193 0,-2.5682 0.523,-4.8229 1.568,-6.764 1.045,-1.9411 2.508,-3.4342 4.39,-4.4794 1.881,-1.0453 4.046,-1.5679 6.495,-1.5679 2.359,0 4.464,0.5077 6.316,1.5231 1.881,1.0153 3.33,2.4637 4.345,4.3451 1.045,1.8515 1.568,3.9867 1.568,6.4056 z m -6.495,-1.7918 c -0.03,-1.6126 -0.613,-2.8967 -1.747,-3.8523 -1.135,-0.9855 -2.524,-1.4783 -4.166,-1.4783 -1.553,0 -2.867,0.4778 -3.942,1.4335 -1.045,0.9257 -1.687,2.2248 -1.926,3.8971 z"
     fill="#ffffff"
     id="path6" />
</svg>
