<?xml version="1.0" encoding="UTF-8" standalone="no"?>
<svg
   width="386.78665"
   height="82.52346"
   viewBox="0 0 386.78665 82.52346"
   fill="none"
   version="1.1"
   id="svg8"
   sodipodi:docname="logo_dark_text.svg"
   inkscape:version="1.1.2 (0a00cf5339, 2022-02-04)"
   xmlns:inkscape="http://www.inkscape.org/namespaces/inkscape"
   xmlns:sodipodi="http://sodipodi.sourceforge.net/DTD/sodipodi-0.dtd"
   xmlns="http://www.w3.org/2000/svg"
   xmlns:svg="http://www.w3.org/2000/svg">
  <defs
     id="defs12" />
  <sodipodi:namedview
     id="namedview10"
     pagecolor="#ffffff"
     bordercolor="#666666"
     borderopacity="1.0"
     inkscape:pageshadow="2"
     inkscape:pageopacity="0.0"
     inkscape:pagecheckerboard="0"
     showgrid="false"
     inkscape:zoom="4.0024272"
     inkscape:cx="205.37538"
     inkscape:cy="39.226198"
     inkscape:window-width="3840"
     inkscape:window-height="2059"
     inkscape:window-x="0"
     inkscape:window-y="0"
     inkscape:window-maximized="1"
     inkscape:current-layer="svg8" />
  <path
     d="m 14.932762,56.04016 h 9.2217 v 21.8724 c 0,2.5465 -2.0643,4.6109 -4.6108,4.6109 v 0 c -2.5465,0 -4.6109,-2.0644 -4.6109,-4.6109 z"
     fill="#f7d186"
     id="path2" />
  <path
     fill-rule="evenodd"
     clip-rule="evenodd"
     d="m 24.154562,1.08541 c 0,5.05665 -4.0993,9.15595 -9.156,9.15595 -1.001,0 -1.9646,-0.1607 -2.8662,-0.4576 0.0028,0.0932 0.0042,0.1867 0.0042,0.2805 0,5.0567 -4.09925,9.156 -9.15595,9.156 -1.04274,0 -2.04478,-0.1743 -2.978547,-0.4954 C 6.9e-4,18.82036 0,18.91606 0,19.01186 v 36.3371 c 0,3.627 2.940292,6.5673 6.567312,6.5673 h 25.95275 c 3.627,0 6.5673,-2.9403 6.5673,-6.5673 v -36.3371 c 0,-9.2281 -6.3959,-16.96239 -14.9965,-19.01186 0.042,0.35595 0.0637,0.71815 0.0637,1.08541 z m -12.1604,24.35435 c -2.2074,0 -4.04689,2.4282 -4.04689,5.5185 0,3.0903 1.83949,5.5185 4.04689,5.5185 2.2073,0 4.0469,-2.4282 4.0469,-5.5185 0,-3.0903 -1.8396,-5.5185 -4.0469,-5.5185 z m 15.0989,-2e-4 c -2.2073,0 -4.0468,2.5017 -4.0468,5.5185 0,3.0167 1.8395,5.5185 4.0468,5.5185 2.2074,0 4.0469,-2.5018 4.0469,-5.5185 0,-3.0904 -1.8395,-5.5185 -4.0469,-5.5185 z"
     fill="#1347ff"
     id="path4" />
  <path
     d="m 85.263262,57.52706 -13.97,-17.105 v 17.105 h -7.7 v -38.39 h 7.7 v 17.215 l 13.97,-17.215 h 9.295 l -15.84,19.03 16.28,19.36 z m 28.879398,0.495 c -2.933,0 -5.573,-0.6416 -7.92,-1.925 -2.346,-1.32 -4.198,-3.1716 -5.555,-5.555 -1.319698,-2.3833 -1.979698,-5.1333 -1.979698,-8.25 0,-3.1166 0.6783,-5.8666 2.034698,-8.25 1.394,-2.3833 3.282,-4.2166 5.665,-5.5 2.384,-1.32 5.042,-1.98 7.975,-1.98 2.934,0 5.592,0.66 7.975,1.98 2.384,1.2834 4.254,3.1167 5.61,5.5 1.394,2.3834 2.09,5.1334 2.09,8.25 0,3.1167 -0.715,5.8667 -2.145,8.25 -1.393,2.3834 -3.3,4.235 -5.72,5.555 -2.383,1.2834 -5.06,1.925 -8.03,1.925 z m 0,-6.71 c 1.394,0 2.695,-0.33 3.905,-0.99 1.247,-0.6966 2.237,-1.7233 2.97,-3.08 0.734,-1.3566 1.1,-3.0066 1.1,-4.95 0,-2.8966 -0.77,-5.115 -2.31,-6.655 -1.503,-1.5766 -3.355,-2.365 -5.555,-2.365 -2.2,0 -4.051,0.7884 -5.555,2.365 -1.466,1.54 -2.2,3.7584 -2.2,6.655 0,2.8967 0.715,5.1334 2.145,6.71 1.467,1.54 3.3,2.31 5.5,2.31 z m 59.934,-24.695 c 3.74,0 6.746,1.155 9.02,3.465 2.31,2.2734 3.465,5.4634 3.465,9.57 v 17.875 h -7.7 v -16.83 c 0,-2.3833 -0.605,-4.1983 -1.815,-5.445 -1.21,-1.2833 -2.86,-1.925 -4.95,-1.925 -2.09,0 -3.759,0.6417 -5.005,1.925 -1.21,1.2467 -1.815,3.0617 -1.815,5.445 v 16.83 h -7.7 v -16.83 c 0,-2.3833 -0.605,-4.1983 -1.815,-5.445 -1.21,-1.2833 -2.86,-1.925 -4.95,-1.925 -2.127,0 -3.814,0.6417 -5.06,1.925 -1.21,1.2467 -1.815,3.0617 -1.815,5.445 v 16.83 h -7.7 v -30.47 h 7.7 v 3.685 c 0.99,-1.2833 2.255,-2.2916 3.795,-3.025 1.576,-0.7333 3.3,-1.1 5.17,-1.1 2.383,0 4.51,0.5134 6.38,1.54 1.87,0.99 3.318,2.42 4.345,4.29 0.99,-1.76 2.42,-3.1716 4.29,-4.235 1.906,-1.0633 3.96,-1.595 6.16,-1.595 z m 33.871,31.405 c -2.933,0 -5.573,-0.6416 -7.92,-1.925 -2.346,-1.32 -4.198,-3.1716 -5.555,-5.555 -1.32,-2.3833 -1.98,-5.1333 -1.98,-8.25 0,-3.1166 0.679,-5.8666 2.035,-8.25 1.394,-2.3833 3.282,-4.2166 5.665,-5.5 2.384,-1.32 5.042,-1.98 7.975,-1.98 2.934,0 5.592,0.66 7.975,1.98 2.384,1.2834 4.254,3.1167 5.61,5.5 1.394,2.3834 2.09,5.1334 2.09,8.25 0,3.1167 -0.715,5.8667 -2.145,8.25 -1.393,2.3834 -3.3,4.235 -5.72,5.555 -2.383,1.2834 -5.06,1.925 -8.03,1.925 z m 0,-6.71 c 1.394,0 2.695,-0.33 3.905,-0.99 1.247,-0.6966 2.237,-1.7233 2.97,-3.08 0.734,-1.3566 1.1,-3.0066 1.1,-4.95 0,-2.8966 -0.77,-5.115 -2.31,-6.655 -1.503,-1.5766 -3.355,-2.365 -5.555,-2.365 -2.2,0 -4.051,0.7884 -5.555,2.365 -1.466,1.54 -2.2,3.7584 -2.2,6.655 0,2.8967 0.715,5.1334 2.145,6.71 1.467,1.54 3.3,2.31 5.5,2.31 z m 29.794,-19.855 c 0.99,-1.3933 2.346,-2.5483 4.07,-3.465 1.76,-0.9533 3.758,-1.43 5.995,-1.43 2.603,0 4.95,0.6417 7.04,1.925 2.126,1.2834 3.795,3.1167 5.005,5.5 1.246,2.3467 1.87,5.0784 1.87,8.195 0,3.1167 -0.624,5.885 -1.87,8.305 -1.21,2.3834 -2.879,4.235 -5.005,5.555 -2.09,1.32 -4.437,1.98 -7.04,1.98 -2.237,0 -4.217,-0.4583 -5.94,-1.375 -1.687,-0.9166 -3.062,-2.0716 -4.125,-3.465 v 18.865 h -7.7 v -44.99 h 7.7 z m 16.115,10.725 c 0,-1.8333 -0.385,-3.41 -1.155,-4.73 -0.734,-1.3566 -1.724,-2.3833 -2.97,-3.08 -1.21,-0.6966 -2.53,-1.045 -3.96,-1.045 -1.394,0 -2.714,0.3667 -3.96,1.1 -1.21,0.6967 -2.2,1.7234 -2.97,3.08 -0.734,1.3567 -1.1,2.9517 -1.1,4.785 0,1.8334 0.366,3.4284 1.1,4.785 0.77,1.3567 1.76,2.4017 2.97,3.135 1.246,0.6967 2.566,1.045 3.96,1.045 1.43,0 2.75,-0.3666 3.96,-1.1 1.246,-0.7333 2.236,-1.7783 2.97,-3.135 0.77,-1.3566 1.155,-2.97 1.155,-4.84 z m 21.71,-25.355 v 40.7 h -7.7 v -40.7 z m 6.178,25.355 c 0,-3.08 0.605,-5.8116 1.815,-8.195 1.246,-2.3833 2.915,-4.2166 5.005,-5.5 2.126,-1.2833 4.491,-1.925 7.095,-1.925 2.273,0 4.253,0.4584 5.94,1.375 1.723,0.9167 3.098,2.0717 4.125,3.465 v -4.345 h 7.755 v 30.47 h -7.755 v -4.455 c -0.99,1.43 -2.365,2.6217 -4.125,3.575 -1.724,0.9167 -3.722,1.375 -5.995,1.375 -2.567,0 -4.914,-0.66 -7.04,-1.98 -2.09,-1.32 -3.759,-3.1716 -5.005,-5.555 -1.21,-2.42 -1.815,-5.1883 -1.815,-8.305 z m 23.98,0.11 c 0,-1.87 -0.367,-3.465 -1.1,-4.785 -0.734,-1.3566 -1.724,-2.3833 -2.97,-3.08 -1.247,-0.7333 -2.585,-1.1 -4.015,-1.1 -1.43,0 -2.75,0.3484 -3.96,1.045 -1.21,0.6967 -2.2,1.7234 -2.97,3.08 -0.734,1.32 -1.1,2.8967 -1.1,4.73 0,1.8334 0.366,3.4467 1.1,4.84 0.77,1.3567 1.76,2.4017 2.97,3.135 1.246,0.7334 2.566,1.1 3.96,1.1 1.43,0 2.768,-0.3483 4.015,-1.045 1.246,-0.7333 2.236,-1.76 2.97,-3.08 0.733,-1.3566 1.1,-2.97 1.1,-4.84 z m 32.71,-15.675 c 3.63,0 6.563,1.155 8.8,3.465 2.237,2.2734 3.355,5.4634 3.355,9.57 v 17.875 h -7.7 v -16.83 c 0,-2.42 -0.605,-4.2716 -1.815,-5.555 -1.21,-1.32 -2.86,-1.98 -4.95,-1.98 -2.127,0 -3.813,0.66 -5.06,1.98 -1.21,1.2834 -1.815,3.135 -1.815,5.555 v 16.83 h -7.7 v -30.47 h 7.7 v 3.795 c 1.027,-1.32 2.328,-2.3466 3.905,-3.08 1.613,-0.77 3.373,-1.155 5.28,-1.155 z m 48.352,15.015 c 0,1.1 -0.073,2.09 -0.22,2.97 h -22.275 c 0.184,2.2 0.954,3.9234 2.31,5.17 1.357,1.2467 3.025,1.87 5.005,1.87 2.86,0 4.895,-1.2283 6.105,-3.685 h 8.305 c -0.88,2.9334 -2.566,5.3534 -5.06,7.26 -2.493,1.87 -5.555,2.805 -9.185,2.805 -2.933,0 -5.573,-0.6416 -7.92,-1.925 -2.31,-1.32 -4.125,-3.1716 -5.445,-5.555 -1.283,-2.3833 -1.925,-5.1333 -1.925,-8.25 0,-3.1533 0.642,-5.9216 1.925,-8.305 1.284,-2.3833 3.08,-4.2166 5.39,-5.5 2.31,-1.2833 4.969,-1.925 7.975,-1.925 2.897,0 5.482,0.6234 7.755,1.87 2.31,1.2467 4.089,3.025 5.335,5.335 1.284,2.2734 1.925,4.895 1.925,7.865 z m -7.975,-2.2 c -0.036,-1.98 -0.751,-3.5566 -2.145,-4.73 -1.393,-1.21 -3.098,-1.815 -5.115,-1.815 -1.906,0 -3.52,0.5867 -4.84,1.76 -1.283,1.1367 -2.071,2.7317 -2.365,4.785 z"
     fill="#061431"
     id="path6" />
</svg>
